Coordinates
version=1
nRows=17
nColumns=24
inDegrees=yes

Units are S.I. units (second, meters, Newtons, ...)
Angles are in degrees.

endheader
time	pelvis_tilt	pelvis_list	pelvis_rotation	pelvis_tx	pelvis_ty	pelvis_tz	hip_flexion_r	hip_adduction_r	hip_rotation_r	knee_angle_r	ankle_angle_r	subtalar_angle_r	mtp_angle_r	hip_flexion_l	hip_adduction_l	hip_rotation_l	knee_angle_l	ankle_angle_l	subtalar_angle_l	mtp_angle_l	lumbar_extension	lumbar_bending	lumbar_rotation
      1.10466667	     -0.41115260	     -2.24461480	     -1.26022721	     -0.16097952	      1.04965587	      0.35780183	    -13.71459797	      8.27944957	     -2.51322160	     -5.03243157	     10.97967102	     -7.70602984	     -2.59406719	     21.17737837	     -0.25574183	     -6.87351636	      1.94945628	      5.79513866	      2.70611958	      0.93106311	      4.14859672	      5.51510580	      0.03505015
      1.10883333	     -0.40441174	     -2.24456451	     -1.26873303	     -0.15533248	      1.04891233	      0.35773614	    -13.85041421	      8.26431480	     -2.42737228	     -5.45113786	     11.06230402	     -7.77616828	     -2.59821762	     21.15207857	     -0.17434942	     -6.69369321	      1.88574896	      5.78395743	      2.81672891	      0.92249853	      4.17812930	      5.48135384	      0.04276727
      1.11300000	     -0.39183367	     -2.22898886	     -1.21075460	     -0.14960562	      1.04816905	      0.35764849	    -14.00674053	      8.25111850	     -2.29850579	     -5.85166297	     11.29138775	     -7.93440412	     -2.60925708	     21.13357593	     -0.06529820	     -6.42348877	      1.73040069	      5.76837367	      2.99164307	      0.90027305	      4.14336117	      5.44104860	      0.05859303
      1.11716667	     -0.36854148	     -2.22718784	     -1.24604015	     -0.14391510	      1.04751067	      0.35764583	    -14.12790716	      8.22195931	     -2.23306844	     -6.33595716	     11.29107742	     -7.97270072	     -2.61204237	     21.10410905	     -0.00423253	     -6.29572599	      1.49870009	      5.73904926	      3.03948605	      0.89525285	      4.17815591	      5.40688131	      0.06689833
      1.12133333	     -0.34710065	     -2.21837786	     -1.28219781	     -0.13817114	      1.04688830	      0.35766838	    -14.23658496	      8.18343498	     -2.15856311	     -6.84914363	     11.31250502	     -8.01448393	     -2.61428986	     21.07106276	      0.05782273	     -6.11804578	      1.21713140	      5.68350610	      3.10037367	      0.89071481	      4.19377447	      5.36312188	      0.07993995
      1.12550000	     -0.32443173	     -2.21075472	     -1.30873673	     -0.13239677	      1.04628388	      0.35769843	    -14.33719670	      8.14660768	     -2.08521013	     -7.38254163	     11.33894981	     -8.05153511	     -2.61582046	     21.03990834	      0.11563758	     -5.92192484	      0.87695746	      5.60268328	      3.15459992	      0.88690412	      4.20411621	      5.31345237	      0.09748383
      1.12966667	     -0.29185693	     -2.20027348	     -1.33643777	     -0.12660097	      1.04572597	      0.35775006	    -14.43224059	      8.10335750	     -2.02039228	     -7.94969088	     11.35656345	     -8.07812897	     -2.61652802	     20.99660977	      0.17035946	     -5.71926266	      0.49058631	      5.49761925	      3.19703653	      0.88392329	      4.21117159	      5.26310063	      0.11750822
      1.13383333	     -0.26044129	     -2.18818541	     -1.36469105	     -0.12077542	      1.04520617	      0.35780783	    -14.50928494	      8.05478478	     -1.97055825	     -8.55130662	     11.36273815	     -8.09275051	     -2.61643983	     20.95146755	      0.22224880	     -5.51040234	      0.06827877	      5.36419911	      3.22532082	      0.88146936	      4.21430625	      5.20899965	      0.14040076
      1.13800000	     -0.21995882	     -2.18211459	     -1.39561580	     -0.11494139	      1.04473972	      0.35787354	    -14.57366049	      8.00756434	     -1.94682180	     -9.19744032	     11.35507852	     -8.08859999	     -2.61536615	     20.89094595	      0.26206670	     -5.29622821	     -0.37247490	      5.18987847	      3.23493275	      0.87920018	      4.20982935	      5.15401247	      0.16709356
      1.14216667	     -0.22759794	     -2.18143543	     -1.35654161	     -0.10912719	      1.04420917	      0.35772970	    -14.54975100	      7.96708670	     -2.11061900	     -9.89950974	     11.38847482	     -7.94772540	     -2.60772490	     20.89106632	      0.32963937	     -4.92025209	     -0.82710309	      4.62507478	      3.08575813	      0.87208064	      4.01095304	      5.16178970	      0.23666143
      1.14633333	     -0.14254652	     -2.15732851	     -1.39551812	     -0.10321067	      1.04390157	      0.35784675	    -14.63413226	      7.89077801	     -2.08465362	    -10.60197048	     11.32423026	     -7.90550558	     -2.60488199	     20.76548706	      0.37359901	     -4.76786715	     -1.30231309	      4.50695904	      3.03873282	      0.87248966	      4.12470285	      5.09494494	      0.26487427
      1.15050000	     -0.08506263	     -2.09268161	     -1.31776798	     -0.09715479	      1.04356591	      0.35740260	    -14.63520511	      7.74002575	     -2.59653004	    -11.38999540	     11.22399410	     -7.07697539	     -2.55577797	     20.63954800	      0.54917167	     -4.25765689	     -1.67906015	      3.49251272	      2.10991802	      0.88097588	      4.10389465	      5.10046942	      0.43743846
      1.15466667	     -0.03081628	     -2.05801533	     -1.41114814	     -0.09119792	      1.04334572	      0.35753448	    -14.62945496	      7.62201941	     -2.58027950	    -12.21049170	     11.16180597	     -7.06631047	     -2.55068684	     20.51146366	      0.58169150	     -4.08432310	     -2.13131545	      3.42375406	      2.08105409	      0.88468979	      4.13964259	      4.99487226	      0.45236826
      1.15883333	     -0.01316145	     -1.97333353	     -1.40855740	     -0.08505837	      1.04310309	      0.35711876	    -14.53403793	      7.40993525	     -3.05458974	    -13.11538804	     11.00794671	     -6.26581796	     -2.46202918	     20.38554623	      0.75101046	     -3.59864767	     -2.47663217	      2.56696174	      1.16654667	      0.92395574	      4.14183081	      4.97588260	      0.54287612
      1.16300000	      0.00586907	     -1.93953766	     -1.46203177	     -0.07911145	      1.04291764	      0.35712036	    -14.42229300	      7.28169931	     -3.19816328	    -14.05149425	     10.88407427	     -6.18010150	     -2.43918405	     20.30829592	      0.79415366	     -3.49239155	     -2.96140965	      2.37997183	      1.01208828	      0.93620397	      4.04259093	      4.83091049	      0.55759958
      1.16716667	      0.05677228	     -1.87471638	     -1.44121221	     -0.07306974	      1.04281540	      0.35685141	    -14.31458029	      7.10436979	     -3.59721739	    -15.02481000	     10.52294715	     -5.67895401	     -2.37457354	     20.19239250	      0.91183850	     -3.35615720	     -3.40547777	      1.69737773	      0.59999314	      0.96147096	      4.04384146	      4.76851676	      0.59633513
      1.17133333	      0.14083513	     -1.77550287	     -1.44250316	     -0.06694053	      1.04283123	      0.35640323	    -14.22303710	      6.84956882	     -3.97926831	    -16.06206080	     10.50324335	     -4.86521625	     -2.14283184	     19.95446801	      1.08519817	     -2.73812942	     -3.71172855	      1.00076620	     -0.58152094	      1.07769630	      4.07876361	      4.63906380	      0.64875412
